<svg xmlns="http://www.w3.org/2000/svg" viewBox="0 0 1600 1000" fill="none">
  <rect width="1600" height="1000" fill="#04060C"/>
  <rect x="0" y="0" width="1600" height="1000" fill="url(#bg)"/>
  <path d="M0 760L250 610L460 650L720 500L1020 570L1320 420L1600 520V1000H0V760Z" fill="#0B1320"/>
  <path d="M0 820L200 700L420 760L710 590L980 650L1270 560L1600 680V1000H0V820Z" fill="#121D31"/>
  <rect x="210" y="160" width="52" height="540" rx="26" fill="#52E7C3" fill-opacity="0.9"/>
  <rect x="240" y="120" width="18" height="620" rx="9" fill="#EAFBFF" fill-opacity="0.65"/>
  <circle cx="1180" cy="220" r="120" fill="#88A6FF" fill-opacity="0.32"/>
  <circle cx="1180" cy="220" r="54" fill="#FAFEFF" fill-opacity="0.85"/>
  <rect x="1160" y="0" width="8" height="1000" fill="#FFFFFF" fill-opacity="0.06"/>
  <defs>
    <linearGradient id="bg" x1="800" y1="0" x2="800" y2="1000" gradientUnits="userSpaceOnUse">
      <stop stop-color="#09101B"/>
      <stop offset="1" stop-color="#03050A"/>
    </linearGradient>
  </defs>
</svg>
